<?xml version="1.0" encoding="UTF-8"?>
<svg id="Ebene_1" xmlns="http://www.w3.org/2000/svg" version="1.1" viewBox="0 0 794.38 858.45">
  <!-- Generator: Adobe Illustrator 30.8.2, SVG Export Plug-In . SVG Version: 2.1.4 Build 7)  -->
  <defs>
    <style>
      .st0 {
        fill: red;
      }
    </style>
  </defs>
  <path d="M278.26,426.34c-5.08,2.63-10.17,3.84-15.27,3.64-5.1-.2-9.82-1.73-14.14-4.57-4.32-2.84-7.81-6.83-10.48-11.98-2.66-5.14-3.9-10.28-3.71-15.42.19-5.13,1.66-9.86,4.42-14.18s6.68-7.8,11.76-10.43c5.53-2.87,10.89-4.16,16.08-3.87,3.76.21,7.21,1.26,10.38,3.16,1.95,1.18,2.42,3.81.95,5.55l-4.6,5.48c-1.12,1.34-3,1.65-4.56.88-1.46-.72-2.96-1.11-4.51-1.17-2.45-.1-4.97.53-7.57,1.88s-4.51,3.1-5.9,5.35-2.12,4.75-2.18,7.51.69,5.63,2.24,8.63,3.48,5.28,5.78,6.85c2.3,1.58,4.77,2.44,7.42,2.6,2.64.16,5.23-.42,7.77-1.73,2.86-1.48,4.91-3.35,6.14-5.6.79-1.44,1.33-2.99,1.62-4.67s1.68-3.02,3.42-3.13l6.84-.41c2.3-.14,4.16,1.85,3.88,4.14-.44,3.58-1.61,7-3.5,10.28-2.66,4.6-6.75,8.33-12.29,11.2h0Z"/>
  <path d="M312.57,459.81c-5.87,0-11.05-1.3-15.56-3.9s-8.03-6.16-10.56-10.67-3.79-9.59-3.79-15.23,1.27-10.73,3.79-15.24c2.53-4.51,6.05-8.07,10.56-10.67s9.7-3.9,15.56-3.9,11.04,1.32,15.51,3.96c4.47,2.64,7.97,6.2,10.5,10.67s3.79,9.53,3.79,15.18-1.26,10.72-3.79,15.23-6.03,8.07-10.5,10.67-9.64,3.9-15.51,3.9ZM312.57,446.39c2.79,0,5.34-.64,7.65-1.92s4.18-3.15,5.61-5.61,2.14-5.41,2.14-8.85-.71-6.38-2.14-8.8c-1.43-2.42-3.3-4.29-5.61-5.61s-4.86-1.98-7.65-1.98-5.26.66-7.64,1.98-4.29,3.19-5.72,5.61c-1.43,2.42-2.15,5.35-2.15,8.8s.71,6.4,2.15,8.85c1.43,2.46,3.34,4.33,5.72,5.61s4.93,1.92,7.64,1.92Z"/>
  <path d="M365.88,471.22l-31.79-36.94c-1.33-1.54-1.15-3.87.39-5.2l4.67-4.02c1.54-1.33,3.87-1.15,5.2.39l2.19,2.54.67-.57c-.26-2.1-.18-4.2.24-6.3.42-2.1,1.21-4.13,2.37-6.1s2.69-3.76,4.58-5.39c3.11-2.68,6.39-4.24,9.83-4.68,3.44-.44,6.51,0,9.22,1.35-.49-3.16-.19-6.49.91-9.99s3.39-6.77,6.89-9.78c4.95-4.26,9.95-5.95,15.01-5.08,5.06.87,9.74,3.81,14.04,8.81l21.13,24.55c1.33,1.54,1.15,3.87-.39,5.2l-5.25,4.52c-1.54,1.33-3.87,1.15-5.2-.39l-19.41-22.55c-2.34-2.72-4.77-4.24-7.26-4.56-2.5-.32-4.83.46-7,2.32-1.89,1.63-3.1,3.56-3.63,5.81s-.39,4.61.44,7.09c.83,2.48,2.29,4.94,4.4,7.39l16.04,18.63c1.33,1.54,1.15,3.87-.39,5.2l-5.34,4.59c-1.54,1.33-3.87,1.15-5.2-.39l-19.41-22.55c-2.34-2.72-4.78-4.23-7.3-4.53-2.53-.29-4.99.59-7.37,2.64-1.78,1.53-2.91,3.4-3.38,5.6-.48,2.2-.29,4.53.57,6.98.86,2.46,2.34,4.91,4.44,7.35l16.04,18.63c1.33,1.54,1.15,3.87-.39,5.2l-5.34,4.59c-1.54,1.33-3.87,1.15-5.2-.39l-.02.03h0Z"/>
  <path d="M445.44,394.65c-2.46-.74-4.31-2.24-5.54-4.53-1.23-2.28-1.48-4.65-.74-7.11s2.24-4.29,4.51-5.48c2.27-1.2,4.64-1.43,7.1-.69s4.29,2.22,5.5,4.46,1.44,4.58.71,7.04-2.23,4.31-4.47,5.55c-2.25,1.24-4.6,1.5-7.06.76h-.01ZM421.71,448.69l13.96-46.69c.58-1.95,2.64-3.06,4.59-2.48l6.75,2.02c1.95.58,3.06,2.64,2.48,4.59l-13.96,46.69c-.58,1.95-2.64,3.06-4.59,2.48l-6.75-2.02c-1.95-.58-3.06-2.64-2.48-4.59Z"/>
  <path d="M442.49,477.97l-4.96-48.48c-.21-2.02,1.27-3.83,3.29-4.04l6.13-.63c2.02-.21,3.83,1.27,4.04,3.29l.34,3.34.88-.09c1.4-2.87,3.55-5.25,6.46-7.13,2.9-1.88,6.14-3.01,9.72-3.37,6.86-.7,12.21.85,16.07,4.66,3.85,3.81,6.14,9.18,6.85,16.11l3.17,31.02c.21,2.02-1.27,3.83-3.29,4.04l-7,.72c-2.02.21-3.83-1.27-4.04-3.29l-3-29.27c-.37-3.65-1.59-6.34-3.65-8.09-2.06-1.74-4.69-2.45-7.9-2.12-2.63.27-4.84,1.21-6.62,2.83-1.79,1.62-3.09,3.67-3.9,6.15-.82,2.48-1.07,5.18-.77,8.1l2.54,24.79c.21,2.02-1.27,3.83-3.29,4.04l-7,.72c-2.02.21-3.83-1.27-4.04-3.29h-.03Z"/>
  <path d="M490.48,540.71c-4.71-1.86-8.5-4.2-11.36-7.02-2.87-2.83-4.93-5.83-6.2-9.01-.66-1.66-1.13-3.27-1.42-4.84-.41-2.22,1.34-4.26,3.6-4.28l7.42-.08c1.76-.02,3.25,1.23,3.64,2.95s1.14,3.49,2.19,5.06c1.61,2.41,3.89,4.19,6.82,5.35,4.16,1.64,8.01,1.68,11.54.12s6.25-4.77,8.16-9.61l1.61-4.09-.82-.32c-2.55,1.68-5.4,2.6-8.54,2.78-3.15.18-6.42-.4-9.83-1.75-4.23-1.67-7.78-4.32-10.63-7.97-2.86-3.65-4.64-7.94-5.33-12.86-.7-4.93.04-10.15,2.22-15.68s5.24-9.94,9.1-13.03c3.86-3.09,8.08-4.99,12.66-5.71,4.58-.72,8.98-.24,13.21,1.42,3.41,1.34,6.21,3.14,8.4,5.38s3.63,4.88,4.33,7.91l.82.32.83-2.1c.75-1.89,2.89-2.82,4.78-2.08l6.04,2.38c1.89.75,2.82,2.89,2.08,4.78l-17.81,45.18c-2.2,5.59-5.21,10.01-9,13.24-3.8,3.23-8.13,5.17-12.99,5.82-4.86.64-10.03-.11-15.48-2.26h-.04ZM504.84,504.87c2.39.94,4.84,1.26,7.37.95,2.52-.31,4.85-1.32,6.99-3.04s3.82-4.15,5.06-7.29,1.73-6.25,1.33-8.93c-.4-2.68-1.43-4.98-3.08-6.89s-3.67-3.34-6.06-4.28-4.86-1.28-7.4-1.02c-2.55.26-4.88,1.23-7,2.92s-3.83,4.17-5.12,7.44c-1.26,3.21-1.7,6.17-1.31,8.88.39,2.72,1.42,5.04,3.11,6.96,1.68,1.93,3.72,3.36,6.11,4.3Z"/>
  <path class="st0" d="M525.97,678.85c-4.75.94-8.93,1.06-12.55.35-3.61-.7-6.69-1.96-9.21-3.78-1.3-.93-2.46-1.95-3.5-3.05-1.55-1.65-1.28-4.28.58-5.57l5.68-3.94c1.46-1.01,3.39-.8,4.69.41s2.62,2.04,4.12,2.63c2.35.92,4.93,1.1,7.73.54,2.18-.43,4.1-1.16,5.76-2.2s2.64-2.97,2.25-4.91c-.29-1.42-1-2.45-2.12-3.08-1.13-.63-2.47-1.04-4-1.23-1.53-.18-3.08-.27-4.65-.26l-6.75-.12c-2.78-.05-5.5-.57-8.16-1.58-2.67-1-4.96-2.49-6.88-4.47-1.92-1.97-3.18-4.43-3.76-7.39-.66-3.31-.27-6.37,1.15-9.2,1.42-2.82,3.63-5.24,6.64-7.26,3-2.01,6.48-3.41,10.44-4.2,3.67-.73,7.06-.95,10.18-.67s5.93,1.09,8.44,2.42c1.18.63,2.28,1.38,3.31,2.26,1.85,1.58,1.75,4.48-.25,5.87l-4.99,3.47c-1.35.94-3.18.96-4.46-.06-1.09-.87-2.26-1.46-3.51-1.78-2.01-.5-4.05-.54-6.14-.13-2.45.48-4.3,1.34-5.55,2.56s-1.75,2.48-1.5,3.77c.27,1.37,1.22,2.41,2.86,3.13,1.64.72,3.51,1.14,5.63,1.24l8.48.34c5.72.21,10.25,1.48,13.59,3.81s5.41,5.51,6.21,9.54c.71,3.6.29,6.95-1.26,10.06s-3.94,5.75-7.18,7.93c-3.23,2.17-7.01,3.69-11.32,4.54h0Z"/>
  <path class="st0" d="M326.38,694.81c-5.87,0-11.05-1.3-15.56-3.9s-8.03-6.16-10.56-10.67-3.79-9.59-3.79-15.23,1.27-10.73,3.79-15.24c2.53-4.51,6.05-8.07,10.56-10.67s9.7-3.9,15.56-3.9,11.04,1.32,15.51,3.96,7.97,6.2,10.5,10.67,3.79,9.53,3.79,15.18-1.26,10.72-3.79,15.23-6.03,8.07-10.5,10.67-9.64,3.9-15.51,3.9ZM326.38,681.39c2.79,0,5.34-.64,7.65-1.92,2.31-1.28,4.18-3.15,5.61-5.61,1.43-2.46,2.14-5.41,2.14-8.85s-.71-6.38-2.14-8.8c-1.43-2.42-3.3-4.29-5.61-5.61s-4.86-1.98-7.65-1.98-5.26.66-7.64,1.98-4.29,3.19-5.72,5.61-2.15,5.35-2.15,8.8.71,6.4,2.15,8.85c1.43,2.46,3.34,4.33,5.72,5.61,2.38,1.28,4.93,1.92,7.64,1.92Z"/>
  <path class="st0" d="M375.93,691.67c-5.87,0-11.05-1.3-15.56-3.9s-8.03-6.16-10.56-10.67-3.79-9.59-3.79-15.23,1.27-10.73,3.79-15.24c2.53-4.51,6.05-8.07,10.56-10.67s9.7-3.9,15.56-3.9,11.04,1.32,15.51,3.96,7.97,6.2,10.5,10.67,3.79,9.53,3.79,15.18-1.26,10.72-3.79,15.23-6.03,8.07-10.5,10.67-9.64,3.9-15.51,3.9ZM375.93,678.25c2.79,0,5.34-.64,7.65-1.92,2.31-1.28,4.18-3.15,5.61-5.61,1.43-2.46,2.14-5.41,2.14-8.85s-.71-6.38-2.14-8.8c-1.43-2.42-3.3-4.29-5.61-5.61s-4.86-1.98-7.65-1.98-5.26.66-7.64,1.98-4.29,3.19-5.72,5.61-2.15,5.35-2.15,8.8.71,6.4,2.15,8.85c1.43,2.46,3.34,4.33,5.72,5.61,2.38,1.28,4.93,1.92,7.64,1.92Z"/>
  <path class="st0" d="M409.09,725.17c-5.87,0-11.05-1.3-15.56-3.9s-8.03-6.16-10.56-10.67-3.79-9.59-3.79-15.23,1.27-10.73,3.79-15.24c2.53-4.51,6.05-8.07,10.56-10.67s9.7-3.9,15.56-3.9,11.04,1.32,15.51,3.96,7.97,6.2,10.5,10.67,3.79,9.53,3.79,15.18-1.26,10.72-3.79,15.23-6.03,8.07-10.5,10.67-9.64,3.9-15.51,3.9ZM409.09,711.75c2.79,0,5.34-.64,7.65-1.92,2.31-1.28,4.18-3.15,5.61-5.61,1.43-2.46,2.14-5.41,2.14-8.85s-.71-6.38-2.14-8.8c-1.43-2.42-3.3-4.29-5.61-5.61s-4.86-1.98-7.65-1.98-5.26.66-7.64,1.98-4.29,3.19-5.72,5.61-2.15,5.35-2.15,8.8.71,6.4,2.15,8.85c1.43,2.46,3.34,4.33,5.72,5.61,2.38,1.28,4.93,1.92,7.64,1.92Z"/>
  <path class="st0" d="M549.91,635.03c-5.87,0-11.05-1.3-15.56-3.9s-8.03-6.16-10.56-10.67c-2.53-4.51-3.79-9.59-3.79-15.23s1.27-10.73,3.79-15.24c2.53-4.51,6.05-8.07,10.56-10.67s9.7-3.9,15.56-3.9,11.04,1.32,15.51,3.96c4.47,2.64,7.97,6.2,10.5,10.67s3.79,9.53,3.79,15.18-1.26,10.72-3.79,15.23c-2.53,4.51-6.03,8.07-10.5,10.67s-9.64,3.9-15.51,3.9ZM549.91,621.61c2.79,0,5.34-.64,7.65-1.92,2.31-1.28,4.18-3.15,5.61-5.61,1.43-2.46,2.14-5.41,2.14-8.85s-.71-6.38-2.14-8.8-3.3-4.29-5.61-5.61-4.86-1.98-7.65-1.98-5.26.66-7.64,1.98-4.29,3.19-5.72,5.61-2.15,5.35-2.15,8.8.71,6.4,2.15,8.85c1.43,2.46,3.34,4.33,5.72,5.61,2.38,1.28,4.93,1.92,7.64,1.92Z"/>
  <path class="st0" d="M570.67,580.97c-5.87,0-11.05-1.3-15.56-3.9s-8.03-6.16-10.56-10.67c-2.53-4.51-3.79-9.59-3.79-15.23s1.27-10.73,3.79-15.24c2.53-4.51,6.05-8.07,10.56-10.67s9.7-3.9,15.56-3.9,11.04,1.32,15.51,3.96c4.47,2.64,7.97,6.2,10.5,10.67s3.79,9.53,3.79,15.18-1.26,10.72-3.79,15.23c-2.53,4.51-6.03,8.07-10.5,10.67s-9.64,3.9-15.51,3.9ZM570.67,567.55c2.79,0,5.34-.64,7.65-1.92,2.31-1.28,4.18-3.15,5.61-5.61,1.43-2.46,2.14-5.41,2.14-8.85s-.71-6.38-2.14-8.8-3.3-4.29-5.61-5.61-4.86-1.98-7.65-1.98-5.26.66-7.64,1.98-4.29,3.19-5.72,5.61-2.15,5.35-2.15,8.8.71,6.4,2.15,8.85c1.43,2.46,3.34,4.33,5.72,5.61,2.38,1.28,4.93,1.92,7.64,1.92Z"/>
  <path class="st0" d="M616.05,555.06c-5.87,0-11.05-1.3-15.56-3.9s-8.03-6.16-10.56-10.67c-2.53-4.51-3.79-9.59-3.79-15.23s1.27-10.73,3.79-15.24c2.53-4.51,6.05-8.07,10.56-10.67s9.7-3.9,15.56-3.9,11.04,1.32,15.51,3.96c4.47,2.64,7.97,6.2,10.5,10.67,2.53,4.47,3.79,9.53,3.79,15.18s-1.26,10.72-3.79,15.23c-2.53,4.51-6.03,8.07-10.5,10.67s-9.64,3.9-15.51,3.9ZM616.05,541.64c2.79,0,5.34-.64,7.65-1.92,2.31-1.28,4.18-3.15,5.61-5.61,1.43-2.46,2.14-5.41,2.14-8.85s-.71-6.38-2.14-8.8-3.3-4.29-5.61-5.61-4.86-1.98-7.65-1.98-5.26.66-7.64,1.98-4.29,3.19-5.72,5.61-2.15,5.35-2.15,8.8.71,6.4,2.15,8.85c1.43,2.46,3.34,4.33,5.72,5.61,2.38,1.28,4.93,1.92,7.64,1.92Z"/>
  <path class="st0" d="M630.97,500.21c-5.87,0-11.05-1.3-15.56-3.9s-8.03-6.16-10.56-10.67c-2.53-4.51-3.79-9.59-3.79-15.23s1.27-10.73,3.79-15.24c2.53-4.51,6.05-8.07,10.56-10.67s9.7-3.9,15.56-3.9,11.04,1.32,15.51,3.96c4.47,2.64,7.97,6.2,10.5,10.67s3.79,9.53,3.79,15.18-1.26,10.72-3.79,15.23c-2.53,4.51-6.03,8.07-10.5,10.67s-9.64,3.9-15.51,3.9ZM630.97,486.79c2.79,0,5.34-.64,7.65-1.92s4.18-3.15,5.61-5.61,2.14-5.41,2.14-8.85-.71-6.38-2.14-8.8c-1.43-2.42-3.3-4.29-5.61-5.61s-4.86-1.98-7.65-1.98-5.26.66-7.64,1.98-4.29,3.19-5.72,5.61c-1.43,2.42-2.15,5.35-2.15,8.8s.71,6.4,2.15,8.85c1.43,2.46,3.34,4.33,5.72,5.61,2.38,1.28,4.93,1.92,7.64,1.92Z"/>
  <path class="st0" d="M656.22,452.31c-5.87,0-11.05-1.3-15.56-3.9s-8.03-6.16-10.56-10.67c-2.53-4.51-3.79-9.59-3.79-15.23s1.27-10.73,3.79-15.24c2.53-4.51,6.05-8.07,10.56-10.67s9.7-3.9,15.56-3.9,11.04,1.32,15.51,3.96c4.47,2.64,7.97,6.2,10.5,10.67s3.79,9.53,3.79,15.18-1.26,10.72-3.79,15.23c-2.53,4.51-6.03,8.07-10.5,10.67s-9.64,3.9-15.51,3.9ZM656.22,438.89c2.79,0,5.34-.64,7.65-1.92s4.18-3.15,5.61-5.61,2.14-5.41,2.14-8.85-.71-6.38-2.14-8.8c-1.43-2.42-3.3-4.29-5.61-5.61s-4.86-1.98-7.65-1.98-5.26.66-7.64,1.98-4.29,3.19-5.72,5.61c-1.43,2.42-2.15,5.35-2.15,8.8s.71,6.4,2.15,8.85c1.43,2.46,3.34,4.33,5.72,5.61,2.38,1.28,4.93,1.92,7.64,1.92Z"/>
  <path class="st0" d="M643.64,398.27c-5.87,0-11.05-1.3-15.56-3.9s-8.03-6.16-10.56-10.67c-2.53-4.51-3.79-9.59-3.79-15.23s1.27-10.73,3.79-15.24c2.53-4.51,6.05-8.07,10.56-10.67s9.7-3.9,15.56-3.9,11.04,1.32,15.51,3.96c4.47,2.64,7.97,6.2,10.5,10.67s3.79,9.53,3.79,15.18-1.26,10.72-3.79,15.23c-2.53,4.51-6.03,8.07-10.5,10.67s-9.64,3.9-15.51,3.9ZM643.64,384.85c2.79,0,5.34-.64,7.65-1.92s4.18-3.15,5.61-5.61,2.14-5.41,2.14-8.85-.71-6.38-2.14-8.8c-1.43-2.42-3.3-4.29-5.61-5.61s-4.86-1.98-7.65-1.98-5.26.66-7.64,1.98-4.29,3.19-5.72,5.61c-1.43,2.42-2.15,5.35-2.15,8.8s.71,6.4,2.15,8.85c1.43,2.46,3.34,4.33,5.72,5.61,2.38,1.28,4.93,1.92,7.64,1.92Z"/>
  <path class="st0" d="M612.84,312.85c-5.87,0-11.05-1.3-15.56-3.9s-8.03-6.16-10.56-10.67c-2.53-4.51-3.79-9.59-3.79-15.23s1.27-10.73,3.79-15.24c2.53-4.51,6.05-8.07,10.56-10.67s9.7-3.9,15.56-3.9,11.04,1.32,15.51,3.96c4.47,2.64,7.97,6.2,10.5,10.67s3.79,9.53,3.79,15.18-1.26,10.72-3.79,15.23c-2.53,4.51-6.03,8.07-10.5,10.67s-9.64,3.9-15.51,3.9ZM612.84,299.43c2.79,0,5.34-.64,7.65-1.92s4.18-3.15,5.61-5.61,2.14-5.41,2.14-8.85-.71-6.38-2.14-8.8c-1.43-2.42-3.3-4.29-5.61-5.61s-4.86-1.98-7.65-1.98-5.26.66-7.64,1.98-4.29,3.19-5.72,5.61c-1.43,2.42-2.15,5.35-2.15,8.8s.71,6.4,2.15,8.85c1.43,2.46,3.34,4.33,5.72,5.61,2.38,1.28,4.93,1.92,7.64,1.92Z"/>
  <path class="st0" d="M659.1,342.66c-5.87,0-11.05-1.3-15.56-3.9s-8.03-6.16-10.56-10.67c-2.53-4.51-3.79-9.59-3.79-15.23s1.27-10.73,3.79-15.24c2.53-4.51,6.05-8.07,10.56-10.67s9.7-3.9,15.56-3.9,11.04,1.32,15.51,3.96c4.47,2.64,7.97,6.2,10.5,10.67s3.79,9.53,3.79,15.18-1.26,10.72-3.79,15.23c-2.53,4.51-6.03,8.07-10.5,10.67s-9.64,3.9-15.51,3.9ZM659.1,329.24c2.79,0,5.34-.64,7.65-1.92s4.18-3.15,5.61-5.61,2.14-5.41,2.14-8.85-.71-6.38-2.14-8.8c-1.43-2.42-3.3-4.29-5.61-5.61s-4.86-1.98-7.65-1.98-5.26.66-7.64,1.98-4.29,3.19-5.72,5.61c-1.43,2.42-2.15,5.35-2.15,8.8s.71,6.4,2.15,8.85c1.43,2.46,3.34,4.33,5.72,5.61,2.38,1.28,4.93,1.92,7.64,1.92Z"/>
  <path class="st0" d="M574.33,270.56c-5.87,0-11.05-1.3-15.56-3.9s-8.03-6.16-10.56-10.67c-2.53-4.51-3.79-9.59-3.79-15.23s1.27-10.73,3.79-15.24c2.53-4.51,6.05-8.07,10.56-10.67s9.7-3.9,15.56-3.9,11.04,1.32,15.51,3.96c4.47,2.64,7.97,6.2,10.5,10.67s3.79,9.53,3.79,15.18-1.26,10.72-3.79,15.23c-2.53,4.51-6.03,8.07-10.5,10.67s-9.64,3.9-15.51,3.9ZM574.33,257.14c2.79,0,5.34-.64,7.65-1.92,2.31-1.28,4.18-3.15,5.61-5.61s2.14-5.41,2.14-8.85-.71-6.38-2.14-8.8-3.3-4.29-5.61-5.61-4.86-1.98-7.65-1.98-5.26.66-7.64,1.98c-2.38,1.32-4.29,3.19-5.72,5.61s-2.15,5.35-2.15,8.8.71,6.4,2.15,8.85c1.43,2.46,3.34,4.33,5.72,5.61,2.38,1.28,4.93,1.92,7.64,1.92Z"/>
  <path class="st0" d="M520.53,286.71c-5.87,0-11.05-1.3-15.56-3.9s-8.03-6.16-10.56-10.67-3.79-9.59-3.79-15.23,1.27-10.73,3.79-15.24c2.53-4.51,6.05-8.07,10.56-10.67s9.7-3.9,15.56-3.9,11.04,1.32,15.51,3.96c4.47,2.64,7.97,6.2,10.5,10.67s3.79,9.53,3.79,15.18-1.26,10.72-3.79,15.23c-2.53,4.51-6.03,8.07-10.5,10.67s-9.64,3.9-15.51,3.9ZM520.53,273.29c2.79,0,5.34-.64,7.65-1.92s4.18-3.15,5.61-5.61,2.14-5.41,2.14-8.85-.71-6.38-2.14-8.8-3.3-4.29-5.61-5.61-4.86-1.98-7.65-1.98-5.26.66-7.64,1.98c-2.38,1.32-4.29,3.19-5.72,5.61s-2.15,5.35-2.15,8.8.71,6.4,2.15,8.85c1.43,2.46,3.34,4.33,5.72,5.61s4.93,1.92,7.64,1.92Z"/>
  <path class="st0" d="M462.07,290.34c-5.87,0-11.05-1.3-15.56-3.9s-8.03-6.16-10.56-10.67-3.79-9.59-3.79-15.23,1.27-10.73,3.79-15.24c2.53-4.51,6.05-8.07,10.56-10.67s9.7-3.9,15.56-3.9,11.04,1.32,15.51,3.96,7.97,6.2,10.5,10.67,3.79,9.53,3.79,15.18-1.26,10.72-3.79,15.23-6.03,8.07-10.5,10.67-9.64,3.9-15.51,3.9ZM462.07,276.92c2.79,0,5.34-.64,7.65-1.92s4.18-3.15,5.61-5.61,2.14-5.41,2.14-8.85-.71-6.38-2.14-8.8c-1.43-2.42-3.3-4.29-5.61-5.61s-4.86-1.98-7.65-1.98-5.26.66-7.64,1.98c-2.38,1.32-4.29,3.19-5.72,5.61s-2.15,5.35-2.15,8.8.71,6.4,2.15,8.85c1.43,2.46,3.34,4.33,5.72,5.61s4.93,1.92,7.64,1.92Z"/>
  <path class="st0" d="M424.54,333.15c-5.87,0-11.05-1.3-15.56-3.9s-8.03-6.16-10.56-10.67-3.79-9.59-3.79-15.23,1.27-10.73,3.79-15.24c2.53-4.51,6.05-8.07,10.56-10.67s9.7-3.9,15.56-3.9,11.04,1.32,15.51,3.96c4.47,2.64,7.97,6.2,10.5,10.67s3.79,9.53,3.79,15.18-1.26,10.72-3.79,15.23-6.03,8.07-10.5,10.67-9.64,3.9-15.51,3.9ZM424.54,319.73c2.79,0,5.34-.64,7.65-1.92s4.18-3.15,5.61-5.61,2.14-5.41,2.14-8.85-.71-6.38-2.14-8.8c-1.43-2.42-3.3-4.29-5.61-5.61s-4.86-1.98-7.65-1.98-5.26.66-7.64,1.98-4.29,3.19-5.72,5.61c-1.43,2.42-2.15,5.35-2.15,8.8s.71,6.4,2.15,8.85c1.43,2.46,3.34,4.33,5.72,5.61s4.93,1.92,7.64,1.92Z"/>
  <path class="st0" d="M373.37,310.44c-5.87,0-11.05-1.3-15.56-3.9s-8.03-6.16-10.56-10.67-3.79-9.59-3.79-15.23,1.27-10.73,3.79-15.24c2.53-4.51,6.05-8.07,10.56-10.67,4.51-2.6,9.7-3.9,15.56-3.9s11.04,1.32,15.51,3.96c4.47,2.64,7.97,6.2,10.5,10.67s3.79,9.53,3.79,15.18-1.26,10.72-3.79,15.23-6.03,8.07-10.5,10.67-9.64,3.9-15.51,3.9h0ZM373.37,297.02c2.79,0,5.34-.64,7.65-1.92s4.18-3.15,5.61-5.61,2.14-5.41,2.14-8.85-.71-6.38-2.14-8.8c-1.43-2.42-3.3-4.29-5.61-5.61s-4.86-1.98-7.65-1.98-5.26.66-7.64,1.98-4.29,3.19-5.72,5.61c-1.43,2.42-2.15,5.35-2.15,8.8s.71,6.4,2.15,8.85c1.43,2.46,3.34,4.33,5.72,5.61s4.93,1.92,7.64,1.92Z"/>
  <path class="st0" d="M356.24,264.24c-5.87,0-11.05-1.3-15.56-3.9s-8.03-6.16-10.56-10.67-3.79-9.59-3.79-15.23,1.27-10.73,3.79-15.24c2.53-4.51,6.05-8.07,10.56-10.67s9.7-3.9,15.56-3.9,11.04,1.32,15.51,3.96,7.97,6.2,10.5,10.67,3.79,9.53,3.79,15.18-1.26,10.72-3.79,15.23-6.03,8.07-10.5,10.67-9.64,3.9-15.51,3.9ZM356.24,250.82c2.79,0,5.34-.64,7.65-1.92s4.18-3.15,5.61-5.61,2.14-5.41,2.14-8.85-.71-6.38-2.14-8.8c-1.43-2.42-3.3-4.29-5.61-5.61s-4.86-1.98-7.65-1.98-5.26.66-7.64,1.98c-2.38,1.32-4.29,3.19-5.72,5.61s-2.15,5.35-2.15,8.8.71,6.4,2.15,8.85c1.43,2.46,3.34,4.33,5.72,5.61s4.93,1.92,7.64,1.92Z"/>
  <path class="st0" d="M310.92,227.44c-5.87,0-11.05-1.3-15.56-3.9s-8.03-6.16-10.56-10.67-3.79-9.59-3.79-15.23,1.27-10.73,3.79-15.24c2.53-4.51,6.05-8.07,10.56-10.67s9.7-3.9,15.56-3.9,11.04,1.32,15.51,3.96,7.97,6.2,10.5,10.67,3.79,9.53,3.79,15.18-1.26,10.72-3.79,15.23-6.03,8.07-10.5,10.67-9.64,3.9-15.51,3.9ZM310.92,214.02c2.79,0,5.34-.64,7.65-1.92s4.18-3.15,5.61-5.61,2.14-5.41,2.14-8.85-.71-6.38-2.14-8.8c-1.43-2.42-3.3-4.29-5.61-5.61s-4.86-1.98-7.65-1.98-5.26.66-7.64,1.98c-2.38,1.32-4.29,3.19-5.72,5.61s-2.15,5.35-2.15,8.8.71,6.4,2.15,8.85c1.43,2.46,3.34,4.33,5.72,5.61s4.93,1.92,7.64,1.92Z"/>
  <path class="st0" d="M262.7,247.85c-5.87,0-11.05-1.3-15.56-3.9s-8.03-6.16-10.56-10.67-3.79-9.59-3.79-15.23,1.27-10.73,3.79-15.24c2.53-4.51,6.05-8.07,10.56-10.67s9.7-3.9,15.56-3.9,11.04,1.32,15.51,3.96,7.97,6.2,10.5,10.67,3.79,9.53,3.79,15.18-1.26,10.72-3.79,15.23-6.03,8.07-10.5,10.67-9.64,3.9-15.51,3.9ZM262.7,234.43c2.79,0,5.34-.64,7.65-1.92s4.18-3.15,5.61-5.61,2.14-5.41,2.14-8.85-.71-6.38-2.14-8.8c-1.43-2.42-3.3-4.29-5.61-5.61s-4.86-1.98-7.65-1.98-5.26.66-7.64,1.98c-2.38,1.32-4.29,3.19-5.72,5.61-1.43,2.42-2.15,5.35-2.15,8.8s.71,6.4,2.15,8.85c1.43,2.46,3.34,4.33,5.72,5.61,2.38,1.28,4.93,1.92,7.64,1.92Z"/>
  <path class="st0" d="M218.59,280.63c-5.87,0-11.05-1.3-15.56-3.9s-8.03-6.16-10.56-10.67-3.79-9.59-3.79-15.23,1.27-10.73,3.79-15.24c2.53-4.51,6.05-8.07,10.56-10.67,4.51-2.6,9.7-3.9,15.56-3.9s11.04,1.32,15.51,3.96,7.97,6.2,10.5,10.67,3.79,9.53,3.79,15.18-1.26,10.72-3.79,15.23-6.03,8.07-10.5,10.67-9.64,3.9-15.51,3.9h0ZM218.59,267.21c2.79,0,5.34-.64,7.65-1.92s4.18-3.15,5.61-5.61c1.43-2.46,2.14-5.41,2.14-8.85s-.71-6.38-2.14-8.8-3.3-4.29-5.61-5.61-4.86-1.98-7.65-1.98-5.26.66-7.64,1.98c-2.38,1.32-4.29,3.19-5.72,5.61-1.43,2.42-2.15,5.35-2.15,8.8s.71,6.4,2.15,8.85c1.43,2.46,3.34,4.33,5.72,5.61s4.93,1.92,7.64,1.92Z"/>
  <path class="st0" d="M169.16,300.19c-5.87,0-11.05-1.3-15.56-3.9s-8.03-6.16-10.56-10.67-3.79-9.59-3.79-15.23,1.27-10.73,3.79-15.24c2.53-4.51,6.05-8.07,10.56-10.67s9.7-3.9,15.56-3.9,11.04,1.32,15.51,3.96,7.97,6.2,10.5,10.67,3.79,9.53,3.79,15.18-1.26,10.72-3.79,15.23-6.03,8.07-10.5,10.67-9.64,3.9-15.51,3.9ZM169.16,286.77c2.79,0,5.34-.64,7.65-1.92s4.18-3.15,5.61-5.61c1.43-2.46,2.14-5.41,2.14-8.85s-.71-6.38-2.14-8.8c-1.43-2.42-3.3-4.29-5.61-5.61s-4.86-1.98-7.65-1.98-5.26.66-7.64,1.98-4.29,3.19-5.72,5.61c-1.43,2.42-2.15,5.35-2.15,8.8s.71,6.4,2.15,8.85c1.43,2.46,3.34,4.33,5.72,5.61s4.93,1.92,7.64,1.92Z"/>
  <path class="st0" d="M173.4,355.91c-5.87,0-11.05-1.3-15.56-3.9s-8.03-6.16-10.56-10.67-3.79-9.59-3.79-15.23,1.27-10.73,3.79-15.24c2.53-4.51,6.05-8.07,10.56-10.67s9.7-3.9,15.56-3.9,11.04,1.32,15.51,3.96c4.47,2.64,7.97,6.2,10.5,10.67s3.79,9.53,3.79,15.18-1.26,10.72-3.79,15.23-6.03,8.07-10.5,10.67-9.64,3.9-15.51,3.9ZM173.4,342.49c2.79,0,5.34-.64,7.65-1.92s4.18-3.15,5.61-5.61c1.43-2.46,2.14-5.41,2.14-8.85s-.71-6.38-2.14-8.8c-1.43-2.42-3.3-4.29-5.61-5.61s-4.86-1.98-7.65-1.98-5.26.66-7.64,1.98-4.29,3.19-5.72,5.61c-1.43,2.42-2.15,5.35-2.15,8.8s.71,6.4,2.15,8.85c1.43,2.46,3.34,4.33,5.72,5.61s4.93,1.92,7.64,1.92Z"/>
  <path class="st0" d="M157.94,412.13c-5.87,0-11.05-1.3-15.56-3.9s-8.03-6.16-10.56-10.67-3.79-9.59-3.79-15.23,1.27-10.73,3.79-15.24c2.53-4.51,6.05-8.07,10.56-10.67s9.7-3.9,15.56-3.9,11.04,1.32,15.51,3.96c4.47,2.64,7.97,6.2,10.5,10.67s3.79,9.53,3.79,15.18-1.26,10.72-3.79,15.23-6.03,8.07-10.5,10.67-9.64,3.9-15.51,3.9ZM157.94,398.71c2.79,0,5.34-.64,7.65-1.92s4.18-3.15,5.61-5.61c1.43-2.46,2.14-5.41,2.14-8.85s-.71-6.38-2.14-8.8c-1.43-2.42-3.3-4.29-5.61-5.61s-4.86-1.98-7.65-1.98-5.26.66-7.64,1.98-4.29,3.19-5.72,5.61c-1.43,2.42-2.15,5.35-2.15,8.8s.71,6.4,2.15,8.85c1.43,2.46,3.34,4.33,5.72,5.61s4.93,1.92,7.64,1.92Z"/>
  <path class="st0" d="M162.64,459.04c-5.87,0-11.05-1.3-15.56-3.9s-8.03-6.16-10.56-10.67-3.79-9.59-3.79-15.23,1.27-10.73,3.79-15.24c2.53-4.51,6.05-8.07,10.56-10.67s9.7-3.9,15.56-3.9,11.04,1.32,15.51,3.96c4.47,2.64,7.97,6.2,10.5,10.67s3.79,9.53,3.79,15.18-1.26,10.72-3.79,15.23-6.03,8.07-10.5,10.67-9.64,3.9-15.51,3.9ZM162.64,445.62c2.79,0,5.34-.64,7.65-1.92s4.18-3.15,5.61-5.61c1.43-2.46,2.14-5.41,2.14-8.85s-.71-6.38-2.14-8.8c-1.43-2.42-3.3-4.29-5.61-5.61s-4.86-1.98-7.65-1.98-5.26.66-7.64,1.98-4.29,3.19-5.72,5.61c-1.43,2.42-2.15,5.35-2.15,8.8s.71,6.4,2.15,8.85c1.43,2.46,3.34,4.33,5.72,5.61s4.93,1.92,7.64,1.92Z"/>
  <path class="st0" d="M199.03,493.19c-5.87,0-11.05-1.3-15.56-3.9s-8.03-6.16-10.56-10.67-3.79-9.59-3.79-15.23,1.27-10.73,3.79-15.24c2.53-4.51,6.05-8.07,10.56-10.67s9.7-3.9,15.56-3.9,11.04,1.32,15.51,3.96c4.47,2.64,7.97,6.2,10.5,10.67s3.79,9.53,3.79,15.18-1.26,10.72-3.79,15.23-6.03,8.07-10.5,10.67-9.64,3.9-15.51,3.9ZM199.03,479.77c2.79,0,5.34-.64,7.65-1.92s4.18-3.15,5.61-5.61c1.43-2.46,2.14-5.41,2.14-8.85s-.71-6.38-2.14-8.8c-1.43-2.42-3.3-4.29-5.61-5.61s-4.86-1.98-7.65-1.98-5.26.66-7.64,1.98-4.29,3.19-5.72,5.61c-1.43,2.42-2.15,5.35-2.15,8.8s.71,6.4,2.15,8.85c1.43,2.46,3.34,4.33,5.72,5.61s4.93,1.92,7.64,1.92Z"/>
  <path class="st0" d="M203.26,541.72c-5.87,0-11.05-1.3-15.56-3.9s-8.03-6.16-10.56-10.67-3.79-9.59-3.79-15.23,1.27-10.73,3.79-15.24c2.53-4.51,6.05-8.07,10.56-10.67s9.7-3.9,15.56-3.9,11.04,1.32,15.51,3.96c4.47,2.64,7.97,6.2,10.5,10.67s3.79,9.53,3.79,15.18-1.26,10.72-3.79,15.23-6.03,8.07-10.5,10.67-9.64,3.9-15.51,3.9ZM203.26,528.3c2.79,0,5.34-.64,7.65-1.92,2.31-1.28,4.18-3.15,5.61-5.61,1.43-2.46,2.14-5.41,2.14-8.85s-.71-6.38-2.14-8.8c-1.43-2.42-3.3-4.29-5.61-5.61s-4.86-1.98-7.65-1.98-5.26.66-7.64,1.98-4.29,3.19-5.72,5.61c-1.43,2.42-2.15,5.35-2.15,8.8s.71,6.4,2.15,8.85c1.43,2.46,3.34,4.33,5.72,5.61,2.38,1.28,4.93,1.92,7.64,1.92Z"/>
  <path class="st0" d="M248.45,565.24c-5.87,0-11.05-1.3-15.56-3.9s-8.03-6.16-10.56-10.67-3.79-9.59-3.79-15.23,1.27-10.73,3.79-15.24c2.53-4.51,6.05-8.07,10.56-10.67s9.7-3.9,15.56-3.9,11.04,1.32,15.51,3.96,7.97,6.2,10.5,10.67c2.53,4.47,3.79,9.53,3.79,15.18s-1.26,10.72-3.79,15.23-6.03,8.07-10.5,10.67-9.64,3.9-15.51,3.9ZM248.45,551.82c2.79,0,5.34-.64,7.65-1.92,2.31-1.28,4.18-3.15,5.61-5.61,1.43-2.46,2.14-5.41,2.14-8.85s-.71-6.38-2.14-8.8c-1.43-2.42-3.3-4.29-5.61-5.61s-4.86-1.98-7.65-1.98-5.26.66-7.64,1.98-4.29,3.19-5.72,5.61c-1.43,2.42-2.15,5.35-2.15,8.8s.71,6.4,2.15,8.85c1.43,2.46,3.34,4.33,5.72,5.61,2.38,1.28,4.93,1.92,7.64,1.92h0Z"/>
  <path class="st0" d="M256.18,622.54c-5.87,0-11.05-1.3-15.56-3.9s-8.03-6.16-10.56-10.67-3.79-9.59-3.79-15.23,1.27-10.73,3.79-15.24c2.53-4.51,6.05-8.07,10.56-10.67s9.7-3.9,15.56-3.9,11.04,1.32,15.51,3.96,7.97,6.2,10.5,10.67,3.79,9.53,3.79,15.18-1.26,10.72-3.79,15.23-6.03,8.07-10.5,10.67-9.64,3.9-15.51,3.9ZM256.18,609.12c2.79,0,5.34-.64,7.65-1.92,2.31-1.28,4.18-3.15,5.61-5.61,1.43-2.46,2.14-5.41,2.14-8.85s-.71-6.38-2.14-8.8c-1.43-2.42-3.3-4.29-5.61-5.61s-4.86-1.98-7.65-1.98-5.26.66-7.64,1.98-4.29,3.19-5.72,5.61c-1.43,2.42-2.15,5.35-2.15,8.8s.71,6.4,2.15,8.85c1.43,2.46,3.34,4.33,5.72,5.61,2.38,1.28,4.93,1.92,7.64,1.92Z"/>
  <path class="st0" d="M301.5,645.2c-5.87,0-11.05-1.3-15.56-3.9s-8.03-6.16-10.56-10.67-3.79-9.59-3.79-15.23,1.27-10.73,3.79-15.24c2.53-4.51,6.05-8.07,10.56-10.67s9.7-3.9,15.56-3.9,11.04,1.32,15.51,3.96,7.97,6.2,10.5,10.67,3.79,9.53,3.79,15.18-1.26,10.72-3.79,15.23-6.03,8.07-10.5,10.67-9.64,3.9-15.51,3.9ZM301.5,631.78c2.79,0,5.34-.64,7.65-1.92,2.31-1.28,4.18-3.15,5.61-5.61,1.43-2.46,2.14-5.41,2.14-8.85s-.71-6.38-2.14-8.8c-1.43-2.42-3.3-4.29-5.61-5.61s-4.86-1.98-7.65-1.98-5.26.66-7.64,1.98-4.29,3.19-5.72,5.61-2.15,5.35-2.15,8.8.71,6.4,2.15,8.85c1.43,2.46,3.34,4.33,5.72,5.61,2.38,1.28,4.93,1.92,7.64,1.92Z"/>
  <path class="st0" d="M400.88,765.64l18.9-44.92c.79-1.88,2.95-2.76,4.83-1.97l5.68,2.39c1.88.79,2.76,2.95,1.97,4.83l-1.3,3.09.81.34c2.61-1.85,5.64-2.9,9.09-3.16,3.45-.26,6.83.31,10.14,1.7,6.35,2.67,10.31,6.6,11.86,11.79,1.56,5.19.98,11-1.72,17.42l-12.1,28.74c-.79,1.88-2.95,2.76-4.83,1.97l-6.49-2.73c-1.88-.79-2.76-2.95-1.97-4.83l11.41-27.12c1.42-3.38,1.65-6.33.68-8.84-.97-2.52-2.94-4.4-5.92-5.65-2.43-1.02-4.82-1.25-7.17-.69s-4.47,1.74-6.38,3.52c-1.91,1.79-3.43,4.03-4.56,6.73l-9.66,22.96c-.79,1.88-2.95,2.76-4.83,1.97l-6.49-2.73c-1.88-.79-2.76-2.95-1.97-4.83l.02.02h0Z"/>
</svg>